<svg width="375" height="242" viewBox="0 0 375 242" fill="none" xmlns="http://www.w3.org/2000/svg">
<path fill-rule="evenodd" clip-rule="evenodd" d="M141.113 109.514C142.935 108.803 144.419 107.284 145.009 105.262C146.018 101.803 144.033 98.1803 140.574 97.1708C137.115 96.1613 133.492 98.147 132.483 101.606C131.907 103.577 132.305 105.601 133.393 107.165L94.4003 138.162C94.0777 138.006 93.7378 137.874 93.3824 137.771C91.3789 137.186 89.3206 137.606 87.7469 138.735L36.1063 103.298C36.2197 103.024 36.3194 102.742 36.4044 102.451C37.6662 98.1271 35.1841 93.5991 30.8603 92.3372C26.5366 91.0753 22.0085 93.5574 20.7466 97.8812C19.4847 102.205 21.9668 106.733 26.2906 107.995C27.3672 108.309 28.4565 108.391 29.5049 108.271L39.1367 156.653C38.3548 157.412 37.7528 158.379 37.4255 159.5C36.416 162.959 38.4017 166.582 41.8608 167.591C45.0194 168.513 48.3144 166.937 49.6315 164.023L87.4801 149.132C88.1265 149.649 88.8827 150.051 89.7266 150.297C93.1857 151.306 96.8081 149.321 97.8176 145.862C98.1157 144.84 98.1527 143.805 97.9678 142.827L135.531 112.966L139.185 153.099C137.704 153.899 136.531 155.268 136.023 157.012C135.013 160.471 136.999 164.093 140.458 165.103C141.583 165.431 142.725 165.443 143.79 165.19L192.693 219.132C192.108 222.375 194.054 225.602 197.288 226.546C200.747 227.556 204.369 225.57 205.379 222.111C205.57 221.456 205.654 220.796 205.641 220.148L274.802 156.109C275.493 156.713 276.324 157.179 277.263 157.453C280.722 158.463 284.344 156.477 285.354 153.018C286.363 149.559 284.377 145.937 280.918 144.927C277.459 143.918 273.837 145.903 272.827 149.362C272.75 149.628 272.69 149.894 272.647 150.16L148.347 156.426C147.748 154.923 146.597 153.655 145.066 152.936L141.113 109.514ZM200.944 214.02C201.593 214.209 202.19 214.491 202.725 214.845L265.865 156.382L149.068 162.269L196.319 214.388C197.713 213.726 199.346 213.554 200.944 214.02ZM45.5165 155.065C47.1186 155.533 48.4045 156.561 49.2233 157.873L84.8383 143.861L35.8905 110.272L44.7739 154.894C45.0216 154.936 45.2695 154.993 45.5165 155.065Z" fill="#284387"/>
<path fill-rule="evenodd" clip-rule="evenodd" d="M429.542 219.097C428.354 220.65 427.875 222.719 428.421 224.754C429.355 228.234 432.934 230.298 436.414 229.364C439.894 228.43 441.958 224.852 441.024 221.372C440.492 219.389 439.101 217.865 437.359 217.094L454.581 170.354C454.938 170.32 455.297 170.256 455.654 170.16C457.67 169.619 459.211 168.191 459.969 166.408L522.504 169.87C522.549 170.163 522.61 170.456 522.689 170.749C523.856 175.099 528.329 177.679 532.679 176.512C537.03 175.345 539.61 170.872 538.443 166.522C537.275 162.171 532.802 159.591 528.452 160.758C527.369 161.049 526.395 161.545 525.562 162.192L492.203 125.85C492.477 124.795 492.489 123.656 492.186 122.528C491.252 119.048 487.674 116.983 484.194 117.917C481.016 118.77 479.018 121.828 479.407 125.003L454.798 157.386C453.977 157.28 453.122 157.329 452.273 157.557C448.792 158.491 446.728 162.069 447.662 165.549C447.938 166.577 448.444 167.481 449.11 168.22L432.519 213.248L408.553 180.849C409.403 179.397 409.694 177.618 409.223 175.864C408.289 172.383 404.711 170.319 401.231 171.253C400.099 171.557 399.116 172.14 398.338 172.909L328.532 152.213C327.348 149.137 324.008 147.39 320.754 148.263C317.274 149.197 315.21 152.775 316.144 156.255C316.321 156.914 316.592 157.522 316.94 158.069L291.099 248.714C290.195 248.557 289.242 248.589 288.298 248.843C284.817 249.777 282.753 253.355 283.687 256.835C284.621 260.316 288.199 262.38 291.679 261.446C295.16 260.512 297.224 256.934 296.29 253.454C296.218 253.187 296.131 252.928 296.03 252.678L398.995 182.766C400.288 183.738 401.93 184.224 403.611 184.043L429.542 219.097ZM324.136 160.866C323.483 161.041 322.827 161.111 322.186 161.086L298.594 243.839L395.345 178.146L327.897 158.149C327.05 159.439 325.744 160.435 324.136 160.866ZM487.576 130.52C485.964 130.953 484.331 130.742 482.949 130.046L459.793 160.518L519.066 163.799L488.299 130.281C488.065 130.373 487.824 130.454 487.576 130.52Z" fill="#284387"/>
<mask id="path-3-outside-1_52_7" maskUnits="userSpaceOnUse" x="231.229" y="-7.16598" width="176.827" height="179.158" fill="black">
<rect fill="white" x="231.229" y="-7.16598" width="176.827" height="179.158"/>
<path fill-rule="evenodd" clip-rule="evenodd" d="M362.478 109.584C358.707 111.884 357.514 116.806 359.815 120.578C362.115 124.349 367.037 125.541 370.808 123.241C374.58 120.94 375.772 116.018 373.472 112.247C371.171 108.476 366.249 107.284 362.478 109.584ZM298.9 123.098L356.226 115.915L356.843 120.841L299.518 128.024L298.9 123.098ZM289.466 115.595L322.507 34.7026L327.103 36.5799L294.062 117.472L289.466 115.595ZM324.933 7.77901C318.04 11.9832 315.861 20.9786 320.065 27.8709C324.269 34.7632 333.265 36.9424 340.157 32.7382C347.05 28.534 349.229 19.5386 345.025 12.6463C340.82 5.75401 331.825 3.57485 324.933 7.77901ZM281.933 130.607C279.633 126.836 280.825 121.914 284.596 119.613C288.368 117.313 293.29 118.505 295.59 122.277C297.89 126.048 296.698 130.97 292.927 133.27C289.156 135.571 284.234 134.378 281.933 130.607Z"/>
</mask>
<path d="M356.226 115.915L361.152 115.298L360.535 110.372L355.609 110.989L356.226 115.915ZM298.9 123.098L298.283 118.172L293.357 118.79L293.974 123.716L298.9 123.098ZM356.843 120.841L357.461 125.767L362.387 125.15L361.769 120.224L356.843 120.841ZM299.518 128.024L294.592 128.642L295.209 133.568L300.135 132.951L299.518 128.024ZM322.507 34.7026L324.384 30.1066L319.788 28.2293L317.911 32.8253L322.507 34.7026ZM289.466 115.595L284.87 113.718L282.993 118.314L287.589 120.191L289.466 115.595ZM327.103 36.5799L331.699 38.4571L333.576 33.8611L328.98 31.9839L327.103 36.5799ZM294.062 117.472L292.185 122.068L296.781 123.946L298.658 119.35L294.062 117.472ZM364.053 117.992C363.181 116.562 363.633 114.695 365.063 113.822L359.893 105.346C353.781 109.074 351.848 117.051 355.576 123.163L364.053 117.992ZM368.223 119.002C366.793 119.875 364.926 119.423 364.053 117.992L355.576 123.163C359.305 129.275 367.282 131.207 373.394 127.479L368.223 119.002ZM369.233 114.832C370.106 116.263 369.654 118.13 368.223 119.002L373.394 127.479C379.506 123.751 381.438 115.774 377.71 109.662L369.233 114.832ZM365.063 113.822C366.494 112.95 368.361 113.402 369.233 114.832L377.71 109.662C373.982 103.55 366.005 101.617 359.893 105.346L365.063 113.822ZM355.609 110.989L298.283 118.172L299.518 128.024L356.843 120.841L355.609 110.989ZM361.769 120.224L361.152 115.298L351.3 116.533L351.917 121.459L361.769 120.224ZM300.135 132.951L357.461 125.767L356.226 115.915L298.9 123.098L300.135 132.951ZM293.974 123.716L294.592 128.642L304.444 127.407L303.827 122.481L293.974 123.716ZM317.911 32.8253L284.87 113.718L294.062 117.472L327.103 36.5799L317.911 32.8253ZM328.98 31.9839L324.384 30.1066L320.63 39.2986L325.226 41.1759L328.98 31.9839ZM298.658 119.35L331.699 38.4571L322.507 34.7026L289.466 115.595L298.658 119.35ZM287.589 120.191L292.185 122.068L295.939 112.876L291.343 110.999L287.589 120.191ZM324.304 25.2856C321.527 20.7341 322.966 14.7937 327.518 12.0174L322.347 3.54065C313.114 9.17264 310.195 21.2232 315.827 30.4562L324.304 25.2856ZM337.572 28.4998C333.02 31.2762 327.08 29.8371 324.304 25.2856L315.827 30.4562C321.459 39.6893 333.509 42.6085 342.743 36.9766L337.572 28.4998ZM340.786 15.2316C343.563 19.7831 342.123 25.7235 337.572 28.4998L342.743 36.9766C351.976 31.3446 354.895 19.2941 349.263 10.061L340.786 15.2316ZM327.518 12.0174C332.069 9.24103 338.01 10.6801 340.786 15.2316L349.263 10.061C343.631 0.827922 331.58 -2.09134 322.347 3.54065L327.518 12.0174ZM282.011 115.375C275.899 119.103 273.967 127.08 277.695 133.192L286.172 128.022C285.299 126.591 285.751 124.724 287.182 123.852L282.011 115.375ZM299.828 119.691C296.1 113.579 288.123 111.647 282.011 115.375L287.182 123.852C288.612 122.979 290.479 123.432 291.352 124.862L299.828 119.691ZM295.512 137.509C301.624 133.781 303.557 125.803 299.828 119.691L291.352 124.862C292.224 126.293 291.772 128.159 290.342 129.032L295.512 137.509ZM277.695 133.192C281.423 139.305 289.4 141.237 295.512 137.509L290.342 129.032C288.911 129.905 287.044 129.452 286.172 128.022L277.695 133.192Z" fill="url(#paint0_linear_52_7)" mask="url(#path-3-outside-1_52_7)"/>
<mask id="path-5-outside-2_52_7" maskUnits="userSpaceOnUse" x="-34.9079" y="13.092" width="305.698" height="312.19" fill="black">
<rect fill="white" x="-34.9079" y="13.092" width="305.698" height="312.19"/>
<path fill-rule="evenodd" clip-rule="evenodd" d="M115.262 77.9903C122.56 81.2884 131.149 78.0463 134.447 70.7489C137.745 63.4515 134.503 54.8621 127.206 51.564C119.908 48.2658 111.319 51.5079 108.021 58.8054C104.723 66.1028 107.965 74.6922 115.262 77.9903ZM200.446 159.401L131.13 80.8858L137.877 74.9294L207.193 153.445L200.446 159.401ZM198.846 181.195L43.9474 214.342L42.0641 205.542L196.962 172.394L198.846 181.195ZM1.14818 238.212C14.4849 244.24 30.1827 238.314 36.2103 224.978C42.2379 211.641 36.3127 195.943 22.976 189.916C9.63934 183.888 -6.05852 189.813 -12.0861 203.15C-18.1137 216.487 -12.1885 232.184 1.14818 238.212ZM229.023 177.142C225.725 184.439 217.135 187.681 209.838 184.383C202.541 181.085 199.298 172.495 202.597 165.198C205.895 157.901 214.484 154.659 221.782 157.957C229.079 161.255 232.321 169.844 229.023 177.142Z"/>
</mask>
<path d="M131.13 80.8858L125.174 74.1388L118.427 80.0952L124.383 86.8422L131.13 80.8858ZM200.446 159.401L193.699 165.357L199.655 172.104L206.402 166.148L200.446 159.401ZM137.877 74.9294L144.624 68.973L138.668 62.226L131.921 68.1824L137.877 74.9294ZM207.193 153.445L213.149 160.192L219.896 154.235L213.94 147.488L207.193 153.445ZM43.9474 214.342L35.1467 216.226L37.03 225.027L45.8307 223.143L43.9474 214.342ZM198.846 181.195L200.729 189.996L209.53 188.112L207.647 179.312L198.846 181.195ZM42.0641 205.542L40.1808 196.741L31.3801 198.624L33.2634 207.425L42.0641 205.542ZM196.962 172.394L205.763 170.511L203.88 161.71L195.079 163.594L196.962 172.394ZM126.246 67.0423C124.995 69.8103 121.737 71.04 118.969 69.789L111.556 86.1916C123.382 91.5368 137.303 86.2824 142.648 74.4555L126.246 67.0423ZM123.499 59.7652C126.267 61.0162 127.497 64.2743 126.246 67.0423L142.648 74.4555C147.994 62.6286 142.739 48.7079 130.912 43.3627L123.499 59.7652ZM116.222 62.512C117.473 59.744 120.731 58.5142 123.499 59.7652L130.912 43.3627C119.085 38.0174 105.165 43.2719 99.8194 55.0987L116.222 62.512ZM118.969 69.789C116.201 68.538 114.971 65.28 116.222 62.512L99.8194 55.0987C94.4742 66.9256 99.7286 80.8464 111.556 86.1916L118.969 69.789ZM124.383 86.8422L193.699 165.357L207.193 153.445L137.877 74.9294L124.383 86.8422ZM131.921 68.1824L125.174 74.1388L137.087 87.6327L143.834 81.6763L131.921 68.1824ZM213.94 147.488L144.624 68.973L131.13 80.8858L200.446 159.401L213.94 147.488ZM206.402 166.148L213.149 160.192L201.236 146.698L194.489 152.654L206.402 166.148ZM45.8307 223.143L200.729 189.996L196.962 172.394L42.0641 205.542L45.8307 223.143ZM33.2634 207.425L35.1467 216.226L52.7482 212.459L50.8649 203.658L33.2634 207.425ZM195.079 163.594L40.1808 196.741L43.9474 214.342L198.846 181.195L195.079 163.594ZM207.647 179.312L205.763 170.511L188.162 174.278L190.045 183.078L207.647 179.312ZM28.009 221.271C24.0286 230.078 13.662 233.991 4.8548 230.011L-2.55843 246.413C15.3077 254.488 36.3369 246.551 44.4116 228.684L28.009 221.271ZM19.2694 198.117C28.0767 202.097 31.9895 212.464 28.009 221.271L44.4116 228.684C52.4863 210.818 44.5488 189.789 26.6826 181.714L19.2694 198.117ZM-3.88483 206.857C0.0956553 198.049 10.4622 194.136 19.2694 198.117L26.6826 181.714C8.81651 173.64 -12.2127 181.577 -20.2874 199.443L-3.88483 206.857ZM4.8548 230.011C-3.95245 226.03 -7.86531 215.664 -3.88483 206.857L-20.2874 199.443C-28.3621 217.309 -20.4246 238.339 -2.55843 246.413L4.8548 230.011ZM206.131 192.584C217.958 197.93 231.879 192.675 237.224 180.848L220.822 173.435C219.571 176.203 216.313 177.433 213.545 176.182L206.131 192.584ZM194.395 161.491C189.05 173.318 194.304 187.239 206.131 192.584L213.545 176.182C210.777 174.931 209.547 171.673 210.798 168.905L194.395 161.491ZM225.488 149.755C213.661 144.41 199.741 149.665 194.395 161.491L210.798 168.905C212.049 166.137 215.307 164.907 218.075 166.158L225.488 149.755ZM237.224 180.848C242.569 169.021 237.315 155.101 225.488 149.755L218.075 166.158C220.843 167.409 222.073 170.667 220.822 173.435L237.224 180.848Z" fill="url(#paint1_linear_52_7)" mask="url(#path-5-outside-2_52_7)"/>
<defs>
<linearGradient id="paint0_linear_52_7" x1="365.188" y1="137.331" x2="317.633" y2="12.2315" gradientUnits="userSpaceOnUse">
<stop stop-color="#F996AD"/>
<stop offset="1" stop-color="#17256C"/>
</linearGradient>
<linearGradient id="paint1_linear_52_7" x1="154.049" y1="45.5889" x2="15.2726" y2="244.596" gradientUnits="userSpaceOnUse">
<stop stop-color="#F996AD"/>
<stop offset="1" stop-color="#17256C"/>
</linearGradient>
</defs>
</svg>
