<svg width="375" height="164" viewBox="0 0 375 164" fill="none" xmlns="http://www.w3.org/2000/svg">
<path fill-rule="evenodd" clip-rule="evenodd" d="M267.804 115.716C265.96 116.367 264.428 117.836 263.772 119.838C262.65 123.262 264.516 126.948 267.94 128.07C271.365 129.192 275.05 127.326 276.172 123.901C276.811 121.95 276.48 119.914 275.444 118.316L315.429 88.6103C315.746 88.7766 316.082 88.919 316.433 89.0342C318.417 89.6841 320.488 89.3315 322.098 88.2543L372.552 125.36C372.43 125.63 372.321 125.909 372.227 126.197C370.824 130.478 373.157 135.084 377.437 136.487C381.717 137.89 386.324 135.557 387.727 131.276C389.129 126.996 386.796 122.389 382.516 120.987C381.45 120.638 380.364 120.52 379.313 120.606L371.267 71.9354C372.074 71.2015 372.707 70.2552 373.071 69.145C374.193 65.7208 372.327 62.0354 368.902 60.9134C365.775 59.8888 362.431 61.356 361.019 64.226L322.704 77.8722C322.075 77.3343 321.332 76.908 320.497 76.6342C317.073 75.5122 313.387 77.3784 312.265 80.8026C311.934 81.8135 311.863 82.8471 312.016 83.8308L273.496 112.448L271.157 72.2167C272.663 71.4656 273.879 70.1355 274.445 68.4096C275.567 64.9855 273.701 61.3 270.277 60.178C269.163 59.813 268.021 59.7642 266.95 59.9824L219.835 4.47057C220.526 1.24862 218.687 -2.04101 215.485 -3.09003C212.061 -4.21207 208.376 -2.34581 207.254 1.07836C207.041 1.72645 206.936 2.38389 206.928 3.03154L135.711 64.7759C135.039 64.15 134.225 63.6565 133.295 63.3519C129.871 62.2298 126.185 64.0961 125.063 67.5203C123.941 70.9444 125.807 74.6299 129.232 75.7519C132.656 76.8739 136.341 75.0077 137.463 71.5835C137.549 71.3208 137.618 71.0565 137.669 70.7919L262.108 68.5924C262.658 70.1141 263.767 71.4191 265.273 72.1872L267.804 115.716ZM211.422 9.31C210.78 9.09954 210.192 8.79888 209.669 8.42666L144.652 64.7956L261.579 62.7289L216.056 9.09281C214.641 9.70894 213.004 9.82835 211.422 9.31ZM364.839 73.3134C363.253 72.7937 362.002 71.7242 361.226 70.3855L325.172 83.2265L372.996 118.398L365.576 73.5086C365.33 73.4584 365.084 73.3935 364.839 73.3134Z" fill="#182E6C"/>
<mask id="path-2-outside-1_52_6" maskUnits="userSpaceOnUse" x="204.472" y="-22.3527" width="162.36" height="166.708" fill="black">
<rect fill="white" x="204.472" y="-22.3527" width="162.36" height="166.708"/>
<path fill-rule="evenodd" clip-rule="evenodd" d="M279.223 10.6839C283.401 12.1183 287.951 9.89417 289.385 5.71608C290.82 1.53798 288.596 -3.01189 284.418 -4.44636C280.24 -5.88082 275.69 -3.65668 274.255 0.521416C272.821 4.69951 275.045 9.24939 279.223 10.6839ZM330.21 50.9956L288.087 11.4546L291.485 7.83488L333.608 47.3759L330.21 50.9956ZM330.457 63.0475L247.099 89.2517L245.61 84.5156L328.968 58.3114L330.457 63.0475ZM224.826 104.571C232.462 107.193 240.777 103.128 243.399 95.4922C246.02 87.8564 241.955 79.5411 234.32 76.9195C226.684 74.2979 218.368 78.3627 215.747 85.9985C213.125 93.6343 217.19 101.95 224.826 104.571ZM346.821 59.2629C345.387 63.441 340.837 65.6652 336.659 64.2307C332.481 62.7962 330.257 58.2463 331.691 54.0683C333.125 49.8902 337.675 47.666 341.853 49.1005C346.032 50.5349 348.256 55.0848 346.821 59.2629Z"/>
</mask>
<path d="M288.087 11.4546L284.468 8.05675L281.07 11.6764L284.69 15.0743L288.087 11.4546ZM330.21 50.9956L326.813 54.6153L330.432 58.0131L333.83 54.3934L330.21 50.9956ZM291.485 7.83488L294.883 4.21518L291.263 0.817348L287.866 4.43705L291.485 7.83488ZM333.608 47.3759L337.228 50.7737L340.626 47.154L337.006 43.7562L333.608 47.3759ZM247.099 89.2517L242.362 90.7405L243.851 95.4766L248.587 93.9878L247.099 89.2517ZM330.457 63.0475L331.946 67.7836L336.682 66.2948L335.193 61.5587L330.457 63.0475ZM245.61 84.5156L244.121 79.7794L239.385 81.2683L240.874 86.0044L245.61 84.5156ZM328.968 58.3114L333.704 56.8226L332.216 52.0864L327.48 53.5753L328.968 58.3114ZM284.69 4.10394C284.146 5.68874 282.42 6.53238 280.835 5.98827L277.611 15.3794C284.382 17.7043 291.756 14.0996 294.081 7.32821L284.69 4.10394ZM282.806 0.249223C284.39 0.793332 285.234 2.51915 284.69 4.10394L294.081 7.32821C296.406 0.556823 292.801 -6.81712 286.03 -9.14194L282.806 0.249223ZM278.951 2.13355C279.495 0.548758 281.221 -0.294884 282.806 0.249223L286.03 -9.14194C279.258 -11.4668 271.884 -7.86211 269.56 -1.09072L278.951 2.13355ZM280.835 5.98827C279.25 5.44416 278.407 3.71835 278.951 2.13355L269.56 -1.09072C267.235 5.68067 270.84 13.0546 277.611 15.3794L280.835 5.98827ZM284.69 15.0743L326.813 54.6153L333.608 47.3759L291.485 7.83488L284.69 15.0743ZM287.866 4.43705L284.468 8.05675L291.707 14.8524L295.105 11.2327L287.866 4.43705ZM337.006 43.7562L294.883 4.21518L288.087 11.4546L330.21 50.9956L337.006 43.7562ZM333.83 54.3934L337.228 50.7737L329.988 43.9781L326.591 47.5978L333.83 54.3934ZM248.587 93.9878L331.946 67.7836L328.968 58.3114L245.61 84.5155L248.587 93.9878ZM240.874 86.0044L242.362 90.7405L251.835 87.7628L250.346 83.0267L240.874 86.0044ZM327.48 53.5753L244.121 79.7794L247.099 89.2517L330.457 63.0475L327.48 53.5753ZM335.193 61.5587L333.704 56.8226L324.232 59.8002L325.721 64.5363L335.193 61.5587ZM238.703 93.8801C236.972 98.9226 231.481 101.607 226.438 99.8757L223.214 109.267C233.443 112.779 244.582 107.333 248.094 97.1043L238.703 93.8801ZM232.707 81.6151C237.75 83.3463 240.434 88.8375 238.703 93.8801L248.094 97.1043C251.606 86.8752 246.161 75.7359 235.932 72.2239L232.707 81.6151ZM220.442 87.6106C222.174 82.5681 227.665 79.8838 232.707 81.6151L235.932 72.2239C225.703 68.7119 214.563 74.1572 211.051 84.3864L220.442 87.6106ZM226.438 99.8757C221.395 98.1444 218.711 92.6532 220.442 87.6106L211.051 84.3864C207.539 94.6155 212.985 105.755 223.214 109.267L226.438 99.8757ZM335.047 68.9263C341.818 71.2511 349.192 67.6464 351.517 60.875L342.126 57.6508C341.582 59.2356 339.856 60.0792 338.271 59.5351L335.047 68.9263ZM326.995 52.4561C324.671 59.2275 328.275 66.6014 335.047 68.9263L338.271 59.5351C336.686 58.991 335.842 57.2652 336.387 55.6804L326.995 52.4561ZM343.466 44.4049C336.694 42.0801 329.32 45.6847 326.995 52.4561L336.387 55.6804C336.931 54.0956 338.657 53.252 340.241 53.7961L343.466 44.4049ZM351.517 60.875C353.842 54.1037 350.237 46.7297 343.466 44.4049L340.241 53.7961C341.826 54.3402 342.67 56.066 342.126 57.6508L351.517 60.875Z" fill="url(#paint0_linear_52_6)" mask="url(#path-2-outside-1_52_6)"/>
<mask id="path-4-outside-2_52_6" maskUnits="userSpaceOnUse" x="-5.98972" y="6.14004" width="133.473" height="140.057" fill="black">
<rect fill="white" x="-5.98972" y="6.14004" width="133.473" height="140.057"/>
<path fill-rule="evenodd" clip-rule="evenodd" d="M80.5008 122.891C76.0907 122.635 72.3087 126.004 72.0535 130.414C71.7983 134.824 75.1666 138.606 79.5767 138.861C83.9868 139.116 87.7687 135.748 88.0239 131.338C88.2791 126.928 84.9109 123.146 80.5008 122.891ZM20.5349 97.8141L71.7568 124.538L69.4604 128.939L18.2385 102.216L20.5349 97.8141ZM17.0486 86.2748L90.2588 38.5717L92.9691 42.7312L19.7589 90.4343L17.0486 86.2748ZM107.578 17.8157C99.518 17.3493 92.6062 23.505 92.1398 31.5649C91.6734 39.6247 97.8291 46.5366 105.889 47.003C113.949 47.4694 120.861 41.3137 121.327 33.2538C121.793 25.194 115.638 18.2821 107.578 17.8157ZM2.31037 94.3301C2.56556 89.92 6.34754 86.5518 10.7576 86.807C15.1677 87.0622 18.536 90.8442 18.2808 95.2543C18.0256 99.6644 14.2436 103.033 9.8335 102.777C5.42339 102.522 2.05517 98.7403 2.31037 94.3301Z"/>
</mask>
<path d="M71.7568 124.538L76.1584 126.834L78.4548 122.432L74.0532 120.136L71.7568 124.538ZM20.5349 97.8141L22.8313 93.4125L18.4297 91.1161L16.1333 95.5177L20.5349 97.8141ZM69.4604 128.939L67.164 133.341L71.5655 135.637L73.862 131.236L69.4604 128.939ZM18.2385 102.216L13.8369 99.9193L11.5405 104.321L15.9421 106.617L18.2385 102.216ZM90.2588 38.5717L94.4183 35.8614L91.708 31.7019L87.5485 34.4122L90.2588 38.5717ZM17.0486 86.2748L14.3383 82.1153L10.1788 84.8256L12.8891 88.9851L17.0486 86.2748ZM92.9691 42.7312L95.6794 46.8908L99.839 44.1805L97.1287 40.0209L92.9691 42.7312ZM19.7589 90.4343L15.5994 93.1446L18.3097 97.3042L22.4692 94.5939L19.7589 90.4343ZM77.0099 130.7C77.1067 129.028 78.5412 127.75 80.214 127.847L80.7876 117.934C73.6402 117.521 67.5108 122.979 67.0972 130.127L77.0099 130.7ZM79.8635 133.905C78.1907 133.808 76.9131 132.373 77.0099 130.7L67.0972 130.127C66.6836 137.274 72.1424 143.404 79.2899 143.817L79.8635 133.905ZM83.0676 131.051C82.9708 132.724 81.5363 134.001 79.8635 133.905L79.2899 143.817C86.4373 144.231 92.5667 138.772 92.9803 131.625L83.0676 131.051ZM80.214 127.847C81.8868 127.944 83.1644 129.378 83.0676 131.051L92.9803 131.625C93.3939 124.477 87.935 118.348 80.7876 117.934L80.214 127.847ZM74.0532 120.136L22.8313 93.4125L18.2385 102.216L69.4604 128.939L74.0532 120.136ZM73.862 131.236L76.1584 126.834L67.3552 122.241L65.0588 126.643L73.862 131.236ZM15.9421 106.617L67.164 133.341L71.7568 124.538L20.5349 97.8141L15.9421 106.617ZM16.1333 95.5177L13.8369 99.9193L22.6401 104.512L24.9365 100.111L16.1333 95.5177ZM87.5485 34.4122L14.3383 82.1153L19.7589 90.4343L92.9691 42.7313L87.5485 34.4122ZM97.1287 40.0209L94.4183 35.8614L86.0993 41.282L88.8096 45.4416L97.1287 40.0209ZM22.4692 94.5939L95.6794 46.8908L90.2588 38.5717L17.0486 86.2748L22.4692 94.5939ZM12.8891 88.9851L15.5994 93.1446L23.9185 87.724L21.2082 83.5645L12.8891 88.9851ZM97.0961 31.8517C97.4041 26.5291 101.969 22.464 107.291 22.772L107.865 12.8594C97.0675 12.2346 87.8082 20.4809 87.1834 31.2781L97.0961 31.8517ZM106.176 42.0467C100.853 41.7387 96.7881 37.1742 97.0961 31.8517L87.1834 31.2781C86.5586 42.0752 94.805 51.3345 105.602 51.9593L106.176 42.0467ZM116.371 32.967C116.063 38.2896 111.498 42.3546 106.176 42.0467L105.602 51.9593C116.399 52.5841 125.659 44.3378 126.283 33.5406L116.371 32.967ZM107.291 22.772C112.614 23.08 116.679 27.6445 116.371 32.967L126.283 33.5406C126.908 22.7435 118.662 13.4842 107.865 12.8594L107.291 22.772ZM11.0444 81.8507C3.89704 81.4371 -2.23237 86.8959 -2.64596 94.0433L7.2667 94.617C7.3635 92.9442 8.79804 91.6666 10.4708 91.7634L11.0444 81.8507ZM23.2371 95.5411C23.6507 88.3937 18.1919 82.2643 11.0444 81.8507L10.4708 91.7634C12.1436 91.8602 13.4212 93.2947 13.3244 94.9675L23.2371 95.5411ZM9.54669 107.734C16.6941 108.147 22.8235 102.689 23.2371 95.5411L13.3244 94.9675C13.2276 96.6403 11.7931 97.9179 10.1203 97.8211L9.54669 107.734ZM-2.64596 94.0433C-3.05956 101.191 2.39929 107.32 9.54669 107.734L10.1203 97.8211C8.4475 97.7243 7.1699 96.2897 7.2667 94.617L-2.64596 94.0433Z" fill="url(#paint1_linear_52_6)" mask="url(#path-4-outside-2_52_6)"/>
<defs>
<linearGradient id="paint0_linear_52_6" x1="298.851" y1="-9.11415" x2="232.913" y2="107.348" gradientUnits="userSpaceOnUse">
<stop stop-color="#F996AD"/>
<stop offset="1" stop-color="#17256C"/>
</linearGradient>
<linearGradient id="paint1_linear_52_6" x1="66.9354" y1="147.246" x2="99.042" y2="17.3218" gradientUnits="userSpaceOnUse">
<stop stop-color="#F996AD"/>
<stop offset="1" stop-color="#17256C"/>
</linearGradient>
</defs>
</svg>
