<svg
    xmlns="http://www.w3.org/2000/svg"
    viewBox="0 0 201 200"
    id="vector">
    <path
        id="path"
        d="M 66.27 189.08 L 93.59 172.38 C 94.58 171.77 95.79 171.47 97 171.47 L 97 126.53 C 95.79 126.53 94.58 126.23 93.59 125.62 L 66.27 108.92 C 62.78 106.78 57.5 108.62 57.5 111.97 L 57.5 186.03 C 57.5 189.38 62.78 191.22 66.27 189.08 Z"
        fill="#3f69d3"/>
    <path
        id="path_1"
        d="M 127.73 108.92 L 100.41 125.62 C 99.42 126.23 98.21 126.53 97 126.53 L 97 171.47 C 98.21 171.47 99.42 171.77 100.41 172.38 L 127.73 189.08 C 131.22 191.22 136.5 189.38 136.5 186.03 L 136.5 111.97 C 136.5 108.62 131.22 106.78 127.73 108.92 Z"
        fill="#103ed7"/>
    <path
        id="path_2"
        d="M 97.5 87 M 35.5 87 C 35.5 70.563 42.037 54.782 53.659 43.159 C 65.282 31.537 81.063 25 97.5 25 C 113.937 25 129.718 31.537 141.341 43.159 C 152.963 54.782 159.5 70.563 159.5 87 C 159.5 103.437 152.963 119.218 141.341 130.841 C 129.718 142.463 113.937 149 97.5 149 C 81.063 149 65.282 142.463 53.659 130.841 C 42.037 119.218 35.5 103.437 35.5 87"
        fill="#e09925"/>
    <path
        id="path_3"
        d="M 97.5 87 M 44 87 C 44 72.816 49.64 59.199 59.67 49.17 C 69.699 39.14 83.316 33.5 97.5 33.5 C 111.684 33.5 125.301 39.14 135.33 49.17 C 145.36 59.199 151 72.816 151 87 C 151 101.184 145.36 114.801 135.33 124.83 C 125.301 134.86 111.684 140.5 97.5 140.5 C 83.316 140.5 69.699 134.86 59.67 124.83 C 49.64 114.801 44 101.184 44 87"
        fill="#00000000"
        stroke="#f8bd31"
        stroke-width="17"/>
    <path
        id="path_4"
        d="M 95.68 59.94 C 96.4 58.39 98.6 58.39 99.32 59.94 L 105.78 73.95 C 106.07 74.58 106.67 75.01 107.36 75.09 L 122.68 76.91 C 124.37 77.11 125.05 79.21 123.8 80.36 L 112.47 90.84 C 111.96 91.31 111.73 92.01 111.87 92.7 L 114.88 107.83 C 115.21 109.5 113.43 110.79 111.94 109.96 L 98.48 102.43 C 97.87 102.09 97.13 102.09 96.52 102.43 L 83.06 109.96 C 81.57 110.79 79.79 109.5 80.12 107.83 L 83.13 92.7 C 83.27 92.01 83.04 91.31 82.53 90.84 L 71.2 80.36 C 69.95 79.21 70.63 77.11 72.32 76.91 L 87.64 75.09 C 88.33 75.01 88.93 74.58 89.22 73.95 L 95.68 59.94 Z"
        fill="#ffd46e"/>
    <path
        id="path_5"
        d="M 35.5 87 C 35.5 97.28 38 106.97 42.42 115.5 C 43.91 115.23 45.73 114.94 47.82 114.61 C 59.5 112.77 79.85 100.9 97 85.5 C 115.22 69.14 127.5 50.5 131.16 37.53 C 131.28 36.65 131.39 35.85 131.5 35.15 C 121.74 28.73 110.05 25 97.5 25 C 63.26 25 35.5 52.76 35.5 87 Z"
        fill="#ffc66a"
        fill-opacity="0.4"
        stroke-opacity="0.4"
        fill-rule="evenodd"/>
    <path
        id="path_6"
        d="M 8.55 140.06 C 8.84 139.13 10.16 139.13 10.45 140.06 L 11.53 143.5 C 11.61 143.78 11.81 144 12.08 144.12 L 15.42 145.58 C 16.21 145.93 16.21 147.07 15.42 147.42 L 12.08 148.88 C 11.81 149 11.61 149.22 11.53 149.5 L 10.45 152.94 C 10.16 153.87 8.84 153.87 8.55 152.94 L 7.47 149.5 C 7.39 149.22 7.19 149 6.92 148.88 L 3.58 147.42 C 2.79 147.07 2.79 145.93 3.58 145.58 L 6.92 144.12 C 7.19 144 7.39 143.78 7.47 143.5 L 8.55 140.06 Z"
        fill="#f8bd31"/>
    <path
        id="path_7"
        d="M 170.54 121.06 C 170.84 120.13 172.16 120.13 172.46 121.06 L 173.52 124.5 C 173.61 124.78 173.81 125 174.08 125.12 L 177.42 126.58 C 178.21 126.93 178.21 128.07 177.42 128.42 L 174.08 129.88 C 173.81 130 173.61 130.22 173.52 130.5 L 172.46 133.94 C 172.16 134.87 170.84 134.87 170.54 133.94 L 169.48 130.5 C 169.39 130.22 169.19 130 168.92 129.88 L 165.58 128.42 C 164.79 128.07 164.79 126.93 165.58 126.58 L 168.92 125.12 C 169.19 125 169.39 124.78 169.48 124.5 L 170.54 121.06 Z"
        fill="#f8bd31"/>
    <path
        id="path_8"
        d="M 186.54 49.12 C 186.83 48.18 188.17 48.18 188.46 49.12 L 190.61 56.15 C 190.69 56.43 190.89 56.65 191.16 56.77 L 197.46 59.59 C 198.25 59.94 198.25 61.06 197.46 61.41 L 191.16 64.23 C 190.89 64.35 190.69 64.57 190.61 64.85 L 188.46 71.88 C 188.17 72.82 186.83 72.82 186.54 71.88 L 184.39 64.85 C 184.31 64.57 184.11 64.35 183.84 64.23 L 177.54 61.41 C 176.75 61.06 176.75 59.94 177.54 59.59 L 183.84 56.77 C 184.11 56.65 184.31 56.43 184.39 56.15 L 186.54 49.12 Z"
        fill="#f8bd31"/>
    <path
        id="path_9"
        d="M 19.54 13.12 C 19.83 12.18 21.17 12.18 21.46 13.12 L 23.61 20.15 C 23.69 20.43 23.89 20.65 24.16 20.77 L 30.46 23.59 C 31.25 23.94 31.25 25.06 30.46 25.41 L 24.16 28.23 C 23.89 28.35 23.69 28.57 23.61 28.85 L 21.46 35.88 C 21.17 36.82 19.83 36.82 19.54 35.88 L 17.39 28.85 C 17.31 28.57 17.11 28.35 16.84 28.23 L 10.54 25.41 C 9.75 25.06 9.75 23.94 10.54 23.59 L 16.84 20.77 C 17.11 20.65 17.31 20.43 17.39 20.15 L 19.54 13.12 Z"
        fill="#f8bd31"/>
    <path
        id="path_10"
        d="M 21.5 75 M 17.5 75 C 17.5 73.94 17.922 72.921 18.672 72.172 C 19.421 71.422 20.44 71 21.5 71 C 22.56 71 23.579 71.422 24.328 72.172 C 25.078 72.921 25.5 73.94 25.5 75 C 25.5 76.06 25.078 77.079 24.328 77.828 C 23.579 78.578 22.56 79 21.5 79 C 20.44 79 19.421 78.578 18.672 77.828 C 17.922 77.079 17.5 76.06 17.5 75"
        fill="#f8bd31"/>
    <path
        id="path_11"
        d="M 126.5 12 M 124.5 12 C 124.5 11.47 124.711 10.961 125.086 10.586 C 125.461 10.211 125.97 10 126.5 10 C 127.03 10 127.539 10.211 127.914 10.586 C 128.289 10.961 128.5 11.47 128.5 12 C 128.5 12.53 128.289 13.039 127.914 13.414 C 127.539 13.789 127.03 14 126.5 14 C 125.97 14 125.461 13.789 125.086 13.414 C 124.711 13.039 124.5 12.53 124.5 12"
        fill="#f8bd31"/>
    <path
        id="path_12"
        d="M 32.5 121 M 29.5 121 C 29.5 120.205 29.816 119.441 30.379 118.879 C 30.941 118.316 31.705 118 32.5 118 C 33.295 118 34.059 118.316 34.621 118.879 C 35.184 119.441 35.5 120.205 35.5 121 C 35.5 121.795 35.184 122.559 34.621 123.121 C 34.059 123.684 33.295 124 32.5 124 C 31.705 124 30.941 123.684 30.379 123.121 C 29.816 122.559 29.5 121.795 29.5 121"
        fill="#f8bd31"/>
    <path
        id="path_13"
        d="M 175.5 92 M 171.5 92 C 171.5 90.94 171.922 89.921 172.672 89.172 C 173.421 88.422 174.44 88 175.5 88 C 176.56 88 177.579 88.422 178.328 89.172 C 179.078 89.921 179.5 90.94 179.5 92 C 179.5 93.06 179.078 94.079 178.328 94.828 C 177.579 95.578 176.56 96 175.5 96 C 174.44 96 173.421 95.578 172.672 94.828 C 171.922 94.079 171.5 93.06 171.5 92"
        fill="#f8bd31"/>
    <path
        id="path_14"
        d="M 147 151.5 M 144.5 151.5 C 144.5 150.837 144.764 150.201 145.232 149.732 C 145.701 149.264 146.337 149 147 149 C 147.663 149 148.299 149.264 148.768 149.732 C 149.236 150.201 149.5 150.837 149.5 151.5 C 149.5 152.163 149.236 152.799 148.768 153.268 C 148.299 153.736 147.663 154 147 154 C 146.337 154 145.701 153.736 145.232 153.268 C 144.764 152.799 144.5 152.163 144.5 151.5"
        fill="#f8bd31"/>
</svg>
