<svg
    xmlns="http://www.w3.org/2000/svg"
    viewBox="0 0 18 19"
    id="vector">
    <path
        id="path"
        d="M 9 9.5 M 1 9.5 C 1 7.379 1.843 5.343 3.343 3.843 C 4.843 2.343 6.879 1.5 9 1.5 C 11.121 1.5 13.157 2.343 14.657 3.843 C 16.157 5.343 17 7.379 17 9.5 C 17 11.621 16.157 13.657 14.657 15.157 C 13.157 16.657 11.121 17.5 9 17.5 C 6.879 17.5 4.843 16.657 3.343 15.157 C 1.843 13.657 1 11.621 1 9.5"
        fill="#00000000"
        stroke="#fc8eac"
        stroke-width="2"/>
    <path
        id="path_1"
        d="M 6 6.5 L 12 12.5"
        fill="#00000000"
        stroke="#fc8eac"
        stroke-width="2.5"
        stroke-linecap="round"
        stroke-linejoin="round"/>
    <path
        id="path_2"
        d="M 6 12.5 L 12 6.5"
        fill="#00000000"
        stroke="#fc8eac"
        stroke-width="2.5"
        stroke-linecap="round"
        stroke-linejoin="round"/>
</svg>
